<?xml version="1.0" standalone="no"?>
<!DOCTYPE svg PUBLIC "-//W3C//DTD SVG 20010904//EN"
 "http://www.w3.org/TR/2001/REC-SVG-20010904/DTD/svg10.dtd">
<svg version="1.0" xmlns="http://www.w3.org/2000/svg"
 width="360.000000pt" height="360.000000pt" viewBox="0 0 360.000000 360.000000"
 preserveAspectRatio="xMidYMid meet">
<metadata>
Created by potrace 1.10, written by Peter Selinger 2001-2011
</metadata>
<g transform="translate(0.000000,360.000000) scale(0.100000,-0.100000)"
fill="#000000" stroke="none">
<path d="M1540 3543 c-112 -17 -182 -34 -310 -74 -98 -31 -104 -33 -230 -94
-78 -37 -87 -42 -158 -87 -24 -16 -45 -28 -48 -28 -18 0 -186 -140 -275 -229
-89 -89 -229 -257 -229 -275 0 -3 -12 -24 -27 -48 -46 -71 -51 -80 -88 -158
-20 -41 -41 -83 -46 -93 -11 -20 -71 -202 -88 -267 -27 -102 -35 -206 -35
-430 0 -129 3 -260 7 -290 12 -86 72 -306 89 -324 4 -6 8 -18 8 -27 0 -10 7
-30 15 -46 8 -15 30 -62 50 -103 20 -41 45 -88 56 -105 10 -16 23 -39 29 -50
59 -117 284 -369 425 -476 64 -49 141 -101 165 -112 8 -4 29 -16 45 -27 39
-24 135 -71 205 -100 30 -12 70 -28 88 -36 47 -20 88 -17 122 8 l30 22 0 182
c0 116 -4 185 -10 189 -6 4 -51 1 -100 -6 -148 -20 -273 7 -375 82 -65 47 -77
61 -115 139 -18 36 -36 72 -41 80 -5 8 -12 22 -16 30 -20 47 -84 115 -157 170
-67 49 -73 78 -19 94 38 10 153 -12 160 -31 3 -7 11 -13 19 -13 19 0 144 -126
144 -145 0 -22 124 -143 156 -151 15 -4 39 -13 53 -20 36 -19 172 -18 218 1
19 8 44 15 54 15 21 0 44 39 54 90 4 19 17 53 31 75 31 52 46 87 40 93 -3 2
-33 8 -68 12 -70 8 -142 25 -203 47 -254 95 -359 195 -469 446 -9 21 -16 48
-16 60 0 12 -7 45 -15 72 -23 75 -24 363 -1 436 34 108 79 196 137 268 25 31
26 36 14 65 -19 47 -27 171 -15 256 10 78 31 164 42 176 4 4 36 6 70 5 69 -1
114 -15 238 -71 37 -17 108 -57 144 -82 45 -32 55 -33 116 -14 187 59 571 60
761 0 26 -8 52 -14 58 -14 6 0 56 27 111 60 55 33 104 60 111 60 6 0 23 6 37
14 55 29 119 46 180 47 34 1 66 -1 70 -5 12 -13 33 -100 42 -181 11 -90 4
-204 -15 -251 -12 -29 -11 -34 14 -65 58 -72 103 -160 137 -268 22 -72 22
-361 -1 -436 -8 -27 -15 -60 -15 -72 0 -44 -76 -197 -135 -273 -67 -85 -132
-136 -243 -189 -83 -40 -258 -91 -318 -92 -21 0 -47 -4 -57 -8 -17 -6 -17 -9
5 -41 80 -121 88 -167 88 -526 l0 -310 30 -22 c34 -25 75 -28 122 -8 18 8 58
24 88 36 70 29 166 76 205 100 17 11 39 24 50 30 172 87 498 413 585 585 6 11
19 34 30 50 10 17 35 64 55 105 20 41 43 88 51 103 7 16 14 36 14 46 0 9 4 21
8 27 8 8 19 42 66 205 9 31 16 73 17 95 1 52 13 90 27 86 9 -1 12 59 12 228 0
169 -3 229 -12 228 -14 -4 -26 34 -27 86 -1 22 -8 64 -17 95 -30 109 -78 256
-90 281 -7 14 -29 59 -49 100 -37 78 -42 87 -87 158 -16 24 -28 45 -28 48 0
18 -140 186 -229 275 -89 89 -257 229 -275 229 -3 0 -24 12 -48 28 -72 46
-119 70 -263 137 -37 18 -200 69 -280 89 -188 46 -465 58 -655 29z"/>
<path d="M627 1004 c-9 -10 2 -24 19 -24 8 0 14 7 14 15 0 15 -21 21 -33 9z"/>
<path d="M712 918 c5 -32 28 -35 28 -4 0 17 -5 26 -16 26 -10 0 -14 -7 -12
-22z"/>
<path d="M772 828 c2 -15 11 -24 26 -26 24 -4 30 16 10 36 -20 20 -40 14 -36
-10z"/>
<path d="M863 734 c-8 -22 4 -44 26 -44 24 0 33 13 25 33 -8 21 -44 29 -51 11z"/>
<path d="M982 648 c2 -17 11 -24 31 -26 15 -2 27 1 27 7 0 25 -14 41 -37 41
-20 0 -24 -4 -21 -22z"/>
<path d="M1270 650 c-22 -16 -23 -20 -8 -25 43 -17 88 13 51 34 -14 7 -25 5
-43 -9z"/>
<path d="M1134 635 c-8 -21 2 -45 19 -45 20 0 40 27 33 45 -7 19 -45 20 -52 0z"/>
</g>
</svg>
