<?xml version="1.0" standalone="no"?>
<!DOCTYPE svg PUBLIC "-//W3C//DTD SVG 20010904//EN"
 "http://www.w3.org/TR/2001/REC-SVG-20010904/DTD/svg10.dtd">
<svg version="1.0" xmlns="http://www.w3.org/2000/svg"
 width="900.000000pt" height="273.000000pt" viewBox="0 0 900.000000 273.000000"
 preserveAspectRatio="xMidYMid meet">
<metadata>
Created by potrace 1.16, written by Peter Selinger 2001-2019
</metadata>
<g transform="translate(0.000000,273.000000) scale(0.100000,-0.100000)"
fill="#000000" stroke="none">
<path d="M353 2675 c-106 -33 -203 -125 -242 -231 -21 -55 -21 -62 -19 -1097
l3 -1042 27 -57 c34 -74 107 -146 183 -184 l60 -29 4140 0 4140 0 57 27 c74
34 152 112 186 186 l27 57 0 1055 0 1055 -27 57 c-34 74 -107 146 -183 184
l-60 29 -4125 2 c-3407 1 -4132 -1 -4167 -12z m8267 -179 c49 -26 79 -55 103
-101 l22 -40 0 -995 0 -995 -22 -40 c-24 -46 -54 -75 -103 -101 -34 -18 -151
-19 -4115 -19 l-4080 0 -40 22 c-46 24 -75 54 -101 103 -18 33 -19 78 -19
1030 0 952 1 997 19 1030 36 69 85 106 156 121 19 4 1860 6 4090 5 3938 -1
4056 -2 4090 -20z"/>
<path d="M7044 1443 l-130 -738 219 -3 c121 -1 222 0 224 2 3 2 31 153 63 335
32 182 61 335 64 339 3 5 35 24 72 43 54 27 82 35 139 37 65 4 74 2 103 -23
28 -24 32 -33 32 -78 0 -29 -24 -186 -53 -349 l-53 -298 223 0 223 0 5 22 c3
13 28 154 57 313 75 418 72 517 -14 611 -62 67 -120 87 -268 92 -170 5 -264
-21 -399 -109 -31 -21 -33 -21 -28 -3 3 10 24 125 47 254 22 129 43 247 46
263 l6 27 -224 0 -224 0 -130 -737z"/>
<path d="M5030 2077 c0 -11 -60 -340 -62 -342 -2 -1 -55 -15 -118 -30 -63 -15
-116 -28 -117 -29 -1 -1 -10 -52 -21 -114 l-19 -112 115 0 c113 0 114 0 109
-22 -4 -13 -18 -93 -33 -178 -60 -350 6 -498 244 -549 55 -12 402 -16 402 -5
0 12 41 249 46 265 4 14 -10 17 -86 22 -133 10 -181 42 -179 122 0 22 13 108
27 190 l27 150 148 3 c81 1 147 6 147 10 0 10 38 219 45 250 l5 22 -145 0
c-132 0 -145 2 -145 18 1 9 13 88 29 175 l28 157 -224 0 c-122 0 -223 -1 -223
-3z"/>
<path d="M1150 1735 c-257 -55 -401 -178 -417 -355 -10 -107 47 -182 172 -229
29 -11 136 -34 236 -51 247 -43 280 -59 230 -109 -30 -30 -85 -41 -201 -41
-126 0 -237 24 -347 75 -42 19 -78 34 -80 32 -4 -4 -53 -275 -53 -293 0 -15
125 -50 228 -65 115 -16 417 -6 497 16 108 30 182 71 244 132 68 69 91 125 91
224 0 59 -4 73 -32 115 -47 70 -141 115 -313 149 -71 14 -156 30 -189 37 -32
6 -70 21 -85 34 -25 21 -25 23 -8 42 26 28 84 42 181 42 109 0 158 -12 273
-65 l92 -43 9 46 c24 116 45 252 39 258 -4 4 -44 18 -89 32 -71 21 -107 25
-248 28 -114 2 -185 -1 -230 -11z"/>
<path d="M2460 1735 c-153 -32 -274 -91 -372 -184 -129 -121 -183 -246 -183
-426 0 -98 3 -116 27 -167 15 -32 39 -73 55 -93 41 -53 134 -111 226 -142 78
-26 92 -27 277 -28 224 0 290 13 434 87 105 54 228 174 274 266 70 143 82 331
26 447 -54 114 -169 197 -325 235 -100 24 -334 26 -439 5z m287 -284 c26 -12
52 -35 70 -62 24 -37 28 -52 27 -113 -1 -180 -126 -306 -305 -306 -142 0 -220
66 -222 188 -1 140 75 253 202 298 56 20 178 17 228 -5z"/>
<path d="M3905 1734 c-229 -55 -413 -237 -472 -464 -23 -89 -23 -230 0 -296
42 -123 131 -205 271 -250 67 -22 106 -28 225 -32 90 -3 177 0 230 8 80 11
249 59 279 78 13 9 69 298 60 308 -4 3 -26 -6 -51 -20 -57 -34 -165 -70 -253
-86 -92 -16 -248 -9 -291 13 -47 25 -85 80 -91 132 l-5 45 386 0 385 0 7 93
c19 257 -81 415 -302 472 -74 19 -296 19 -378 -1z m256 -261 c30 -18 59 -67
59 -102 0 -21 -4 -21 -185 -21 -102 0 -185 4 -185 9 0 24 70 95 115 116 43 20
160 19 196 -2z"/>
<path d="M6330 1744 c-92 -18 -197 -51 -270 -87 -112 -54 -240 -178 -289 -279
-43 -90 -64 -193 -59 -293 10 -198 144 -334 377 -381 120 -24 392 -15 506 16
44 12 83 24 87 28 8 8 61 303 55 308 -2 2 -39 -12 -83 -31 -105 -46 -169 -58
-278 -53 -77 3 -99 8 -145 33 -94 51 -127 134 -97 237 21 75 80 139 163 180
59 29 78 33 168 36 120 5 205 -13 279 -59 27 -16 50 -28 51 -27 9 11 55 312
48 319 -5 5 -45 18 -88 30 -63 17 -115 22 -240 24 -88 2 -171 1 -185 -1z"/>
</g>
</svg>
