<?xml version="1.0" standalone="no"?>
<!DOCTYPE svg PUBLIC "-//W3C//DTD SVG 20010904//EN"
 "http://www.w3.org/TR/2001/REC-SVG-20010904/DTD/svg10.dtd">
<svg version="1.0" xmlns="http://www.w3.org/2000/svg"
 width="300.000000pt" height="350.000000pt" viewBox="0 0 300.000000 350.000000"
 preserveAspectRatio="xMidYMid meet">
<metadata>
Created by potrace 1.10, written by Peter Selinger 2001-2011
</metadata>
<g transform="translate(0.000000,350.000000) scale(0.100000,-0.100000)"
fill="#000000" stroke="none">
<path d="M312 3187 l-312 -312 0 -1128 0 -1127 375 0 375 0 0 -312 0 -313 313
313 312 312 248 0 248 0 564 564 565 565 0 875 0 876 -1188 0 -1187 0 -313
-313z m2438 -624 l0 -688 -247 -247 -248 -248 -249 0 -250 0 -223 -222 -223
-222 0 222 0 222 -280 0 -280 0 0 935 0 935 1000 0 1000 0 0 -687z"/>
<path d="M1440 2435 l0 -375 125 0 125 0 0 375 0 375 -125 0 -125 0 0 -375z"/>
<path d="M2125 2798 c-3 -7 -4 -175 -2 -373 l2 -360 125 0 125 0 0 370 0 370
-123 3 c-92 2 -124 -1 -127 -10z"/>
</g>
</svg>
