<?xml version="1.0" standalone="no"?>
<!DOCTYPE svg PUBLIC "-//W3C//DTD SVG 20010904//EN"
 "http://www.w3.org/TR/2001/REC-SVG-20010904/DTD/svg10.dtd">
<svg version="1.0" xmlns="http://www.w3.org/2000/svg"
 width="225.000000pt" height="225.000000pt" viewBox="0 0 225.000000 225.000000"
 preserveAspectRatio="xMidYMid meet">
<metadata>
Created by potrace 1.10, written by Peter Selinger 2001-2011
</metadata>
<g transform="translate(0.000000,225.000000) scale(0.100000,-0.100000)"
fill="#000000" stroke="none">
<path d="M1480 2030 c-143 -26 -261 -112 -328 -238 -40 -75 -55 -151 -50 -246
l3 -77 -60 6 c-216 24 -425 101 -608 222 -39 27 -119 94 -178 151 l-106 102
-24 -52 c-34 -78 -39 -223 -10 -316 23 -76 86 -171 142 -215 l34 -27 -30 0
c-16 0 -61 11 -100 24 -38 14 -72 23 -74 21 -2 -2 2 -32 8 -67 16 -96 70 -196
141 -261 56 -52 150 -107 184 -107 8 0 17 -4 21 -9 7 -12 -95 -25 -146 -18
-23 3 -39 1 -39 -5 0 -28 68 -133 115 -177 65 -62 140 -100 234 -121 l75 -16
-77 -48 c-151 -94 -300 -138 -479 -140 -64 0 -114 -4 -110 -8 22 -21 171 -91
260 -122 154 -53 253 -69 432 -69 373 -1 665 117 915 367 238 239 372 544 392
891 l6 110 46 40 c59 51 99 92 141 146 28 34 30 41 15 36 -76 -24 -157 -46
-195 -52 l-45 -8 52 41 c60 48 143 163 143 200 0 4 -30 -7 -67 -24 -38 -18
-101 -42 -142 -53 l-73 -20 -47 38 c-61 52 -119 80 -200 97 -72 15 -103 16
-171 4z"/>
</g>
</svg>
